<svg width="279" height="51" viewBox="0 0 279 51" fill="none" xmlns="http://www.w3.org/2000/svg">
<path d="M5.78436 40.1366C4.75645 40.1389 3.74637 39.8682 2.8573 39.3523C1.96823 38.8364 1.23205 38.0937 0.723953 37.2002C0.22364 36.3129 -0.0258802 35.3063 0.00212261 34.288C0.0301254 33.2699 0.334596 32.2784 0.882921 31.42L11.304 15.0554C11.8374 14.1758 12.5946 13.4537 13.4984 12.9626C14.4022 12.4715 15.4202 12.2292 16.4483 12.2602C17.4757 12.2848 18.478 12.582 19.3528 13.1212C20.2276 13.6605 20.9434 14.4224 21.427 15.3292C22.3985 17.1661 22.2771 19.3761 21.1135 21.1005L10.6991 37.4651C10.1709 38.2881 9.44359 38.9644 8.58444 39.4314C7.72529 39.8984 6.76219 40.141 5.78436 40.1366Z" fill="#F62B54"/>
<path d="M23.6593 40.1366C21.5575 40.1366 19.6234 39.0129 18.6078 37.2068C18.1086 36.322 17.8596 35.3179 17.8876 34.3024C17.9156 33.2868 18.2195 32.2981 18.7667 31.4421L29.1679 15.115C29.6934 14.2231 30.448 13.4881 31.3533 12.9862C32.2587 12.4841 33.2818 12.2335 34.3166 12.2602C36.4362 12.3066 38.357 13.4922 39.3285 15.3469C40.2933 17.2014 40.152 19.4247 38.9531 21.1446L28.5541 37.4718C28.0276 38.2912 27.3033 38.9649 26.4478 39.4306C25.5923 39.8964 24.6333 40.1392 23.6593 40.1366Z" fill="#FFCC00"/>
<path d="M41.1342 40.2735C44.0973 40.2735 46.4994 37.9219 46.4994 35.0211C46.4994 32.1202 44.0973 29.7686 41.1342 29.7686C38.1712 29.7686 35.7692 32.1202 35.7692 35.0211C35.7692 37.9219 38.1712 40.2735 41.1342 40.2735Z" fill="#00CA72"/>
<path d="M274.209 30.0734C275.829 30.0734 276.799 31.2259 276.799 33.1136V39.5826H279V32.9657C279 29.7554 277.488 27.8942 274.644 27.8942C273.531 27.8942 271.765 28.1989 270.712 30.2456C270.467 29.6419 270.063 29.1158 269.543 28.7232C269.024 28.3305 268.408 28.086 267.76 28.0156C267.352 27.941 266.937 27.9165 266.523 27.9428C265.618 28.0156 264.006 28.5786 263.404 29.8548V28.1393H261.2V39.5826H263.404V33.4072C263.404 31.0051 264.975 30.0734 266.55 30.0734C268.025 30.0734 268.994 31.2016 268.994 33.0893V39.5826H271.184V33.4072C271.184 31.4952 272.332 30.0513 274.209 30.0734ZM253.113 37.6706C254.12 37.6927 255.091 37.2909 255.796 36.5623C256.502 35.8337 256.877 34.8423 256.84 33.8245C256.84 31.5195 255.144 30.0734 253.113 30.0734C251.079 30.0734 249.386 31.5195 249.386 33.8245C249.346 34.8401 249.722 35.8293 250.424 36.5556C251.126 37.2842 252.093 37.6883 253.095 37.6706H253.113ZM253.113 39.8166C249.894 39.8166 247.207 37.4388 247.207 33.8113C247.207 30.1838 249.894 27.881 253.113 27.881C256.332 27.881 259.041 30.1838 259.041 33.8113C259.041 37.4388 256.316 39.8277 253.098 39.8277L253.113 39.8166ZM235.87 33.8113L235.848 33.8245C235.848 30.1971 238.605 27.8942 241.846 27.881C242.661 27.8652 243.469 28.0206 244.219 28.337C244.97 28.6534 245.645 29.1239 246.202 29.7179L244.533 31.1398C244.179 30.7917 243.759 30.5172 243.297 30.3322C242.836 30.1473 242.343 30.0556 241.846 30.0623C239.815 30.0623 238.049 31.5085 238.049 33.8113C238.049 35.3678 238.974 36.7698 240.393 37.3659C241.813 37.9621 243.447 37.6309 244.533 36.5314L246.227 37.9532C245.667 38.5533 244.989 39.0294 244.234 39.3504C243.48 39.6713 242.666 39.8303 241.846 39.8166C238.629 39.8166 235.87 37.4388 235.87 33.8113ZM228.82 37.3858C228.817 37.1857 228.855 36.9872 228.929 36.8015C229.004 36.6157 229.114 36.4465 229.253 36.3034C229.393 36.1603 229.56 36.0461 229.744 35.9674C229.928 35.8887 230.126 35.847 230.326 35.8447C230.526 35.847 230.724 35.8887 230.907 35.9674C231.091 36.0461 231.258 36.1603 231.397 36.3034C231.537 36.4465 231.648 36.6157 231.722 36.8015C231.797 36.9872 231.834 37.1857 231.831 37.3858C231.811 37.7733 231.645 38.1386 231.365 38.4073C231.085 38.6761 230.713 38.828 230.326 38.8319C229.937 38.828 229.566 38.6761 229.286 38.4073C229.006 38.1386 228.839 37.7733 228.82 37.3858Z" fill="#D9ECFF"/>
<path fill-rule="evenodd" clip-rule="evenodd" d="M234.842 13.5915H227.002L221.507 27.7593L216.04 13.5915H208.2L217.732 35.9792L211.803 50.7807H219.586L234.842 13.5915ZM187.162 26.0438C187.162 29.6206 190.288 31.9741 193.359 31.9741C196.377 31.9741 199.342 29.7839 199.342 26.0416C199.342 22.2993 196.377 20.1069 193.359 20.1069C190.288 20.1069 187.162 22.4627 187.162 26.0416V26.0438ZM199.342 38.5447V35.7121C197.753 38.1186 194.043 39.0282 192.14 39.0282C185.839 39.0282 179.536 34.0606 179.536 26.0416C179.536 18.0249 185.837 13.0573 192.14 13.0573C193.728 13.0573 197.437 13.5871 199.342 16.3691V13.6004H206.65V38.5492L199.342 38.5469V38.5447ZM177.456 38.5447H170.148V35.4449C168.927 37.7411 165.966 39.079 162.893 39.079C156.536 39.079 150.922 34.0032 150.922 26.1432C150.922 18.1353 156.536 13.0528 162.893 13.0528C165.962 13.0528 168.931 14.3334 170.148 16.6317V0H177.456V38.5447ZM169.989 25.9864C169.989 22.2464 167.288 20.0539 164.27 20.0539C161.144 20.0539 158.548 22.4053 158.548 25.9864C158.548 29.6824 161.144 32.0227 164.268 32.0227C167.344 32.0271 169.989 29.5676 169.989 25.9864ZM132.853 25.3418C132.853 21.5487 134.813 20.2659 137.407 20.2659C139.896 20.2659 141.697 21.9218 141.697 25.2336V38.5403H149.058V23.6329C149.058 16.528 145.561 13.0528 140 13.0528C137.087 13.0528 134.175 14.7087 132.85 17.2213V13.5915H125.494V38.5403H132.853V25.3418ZM110.547 38.9687C103.556 38.9687 97.7255 33.8398 97.7255 25.9842C97.7255 18.1243 103.55 13.0462 110.547 13.0462C117.543 13.0462 123.419 18.1243 123.419 25.9842C123.419 33.8442 117.537 38.9709 110.547 38.9709V38.9687ZM110.547 31.7048C113.616 31.7048 116.161 29.4572 116.161 25.9864C116.161 22.6195 113.618 20.3211 110.547 20.3211C109.807 20.3095 109.073 20.4486 108.389 20.7299C107.705 21.0111 107.085 21.4287 106.568 21.9571C106.048 22.4884 105.64 23.1188 105.367 23.811C105.095 24.5032 104.966 25.243 104.985 25.9864C104.987 29.4616 107.529 31.7048 110.547 31.7048ZM84.5291 20.2681C86.6996 20.2681 88.6071 21.9792 88.6071 25.2358V38.5447H95.9154V24.3747C95.9154 16.8415 92.2526 13.0484 86.3817 13.0484C84.6373 13.0484 81.3521 13.5783 78.9678 17.4818C77.5901 14.5962 74.9429 13.0992 71.0304 13.0992C69.6719 13.0923 68.3409 13.4767 67.195 14.2065C66.0492 14.9364 65.1381 15.9807 64.5705 17.2146V13.5937H57.2049V38.5425H64.564V25.3418C64.564 21.5487 66.6304 20.2659 68.8534 20.2659C70.9731 20.2659 72.8765 21.9218 72.9314 25.0746V38.5425H80.2922V25.3418C80.2922 21.7142 82.1998 20.2703 84.5291 20.2703V20.2681Z" fill="#D9ECFF"/>
</svg>
